<svg width="736" height="820" viewBox="0 0 736 820" fill="none" xmlns="http://www.w3.org/2000/svg">
<path d="M913.713 -533H162.755C73.0866 -533 0 -460.062 0 -370.246L0 380.712C0 470.381 72.9398 543.466 162.755 543.466H286.324V403.313H162.755C150.281 403.313 140.154 393.187 140.154 380.712V-370.246C140.154 -382.72 150.281 -392.847 162.755 -392.847H913.713C926.187 -392.847 936.314 -382.72 936.314 -370.246V380.712C936.314 393.187 926.187 403.313 913.713 403.313H434.698V543.466H913.713C1003.53 543.466 1076.47 470.528 1076.47 380.712V-370.246C1076.47 -459.915 1003.53 -533 913.713 -533Z" fill="#27348B"/>
<mask id="mask0_101_606" style="mask-type:luminance" maskUnits="userSpaceOnUse" x="364" y="-375" width="713" height="1546">
<path d="M504.754 400.376C504.754 310.267 532.785 280.328 584.003 225.735L936.221 -144.535V438.974C936.221 491.513 926.977 548.601 860.055 610.533L504.607 988.874V400.376H504.754ZM936.221 -374.944C936.221 -352.343 927.27 -337.814 887.646 -296.722L481.42 130.342C423.891 191.54 364.602 254.939 364.602 400.523V1048.02C364.602 1132.99 416.406 1171 467.771 1171C506.515 1171 545.7 1150.01 584.444 1108.92L957.355 711.796C1064.19 611.854 1076.52 508.39 1076.52 439.12V-374.797H936.221V-374.944Z" fill="white"/>
</mask>
<g mask="url(#mask0_101_606)">
<path d="M230.412 -363.202L1071.04 -436.728L1210.61 1159.11L370.126 1232.64L230.412 -363.202Z" fill="url(#paint0_linear_101_606)"/>
</g>
<defs>
<linearGradient id="paint0_linear_101_606" x1="309.754" y1="434.241" x2="1140.43" y2="361.565" gradientUnits="userSpaceOnUse">
<stop stop-color="#42A7DF"/>
<stop offset="0.0801" stop-color="#3FA2DA"/>
<stop offset="0.2115" stop-color="#3992CD"/>
<stop offset="0.378" stop-color="#3377B8"/>
<stop offset="0.5729" stop-color="#31549B"/>
<stop offset="0.7828" stop-color="#2D2E7E"/>
<stop offset="1" stop-color="#2D2E7E"/>
</linearGradient>
</defs>
</svg>
