<svg width="9" height="17" viewBox="0 0 9 17" fill="none" xmlns="http://www.w3.org/2000/svg">
<path d="M5 0.5C5 0.223858 4.77614 1.20706e-08 4.5 0C4.22386 -1.20706e-08 4 0.223858 4 0.5L5 0.5ZM4.14645 16.8536C4.34171 17.0488 4.65829 17.0488 4.85355 16.8536L8.03553 13.6716C8.2308 13.4763 8.2308 13.1597 8.03553 12.9645C7.84027 12.7692 7.52369 12.7692 7.32843 12.9645L4.5 15.7929L1.67157 12.9645C1.47631 12.7692 1.15973 12.7692 0.964466 12.9645C0.769203 13.1597 0.769203 13.4763 0.964466 13.6716L4.14645 16.8536ZM4 0.5L4 16.5L5 16.5L5 0.5L4 0.5Z" fill="white" fill-opacity="0.6"/>
</svg>
