<?xml version="1.0" encoding="UTF-8"?>
<svg id="Camada_3" data-name="Camada 3" xmlns="http://www.w3.org/2000/svg" viewBox="0 0 782.27 439.81">
  <g id="Graphic_elements" data-name="Graphic elements">
    <g>
      <polygon points="650.94 0 212.11 439.81 208.47 439.81 647.29 0 650.94 0"/>
      <polygon points="771.33 0 332.5 439.81 328.86 439.81 767.68 0 771.33 0"/>
      <polygon points="482.6 0 43.26 439.81 39.61 439.81 478.95 0 482.6 0"/>
      <polygon points="723.38 0 284.04 439.81 280.39 439.81 719.73 0 723.38 0"/>
      <polygon points="458.63 0 19.28 439.81 15.63 439.81 454.98 0 458.63 0"/>
      <polygon points="747.35 0 308.01 439.81 304.36 439.81 743.7 0 747.35 0"/>
      <polygon points="555.04 0 115.7 439.81 112.05 439.81 551.39 0 555.04 0"/>
      <polygon points="602.99 0 163.65 439.81 160 439.81 599.34 0 602.99 0"/>
      <polygon points="579.02 0 139.67 439.81 136.02 439.81 575.37 0 579.02 0"/>
      <polygon points="626.96 0 187.62 439.81 183.97 439.81 623.31 0 626.96 0"/>
      <polygon points="530.55 0 91.73 439.81 88.08 439.81 526.9 0 530.55 0"/>
      <polygon points="675.43 0 236.09 439.81 232.44 439.81 671.78 0 675.43 0"/>
      <polygon points="506.57 0 67.23 439.81 63.58 439.81 502.92 0 506.57 0"/>
      <polygon points="699.4 0 260.06 439.81 256.41 439.81 695.76 0 699.4 0"/>
      <polygon points="434.65 0 0 434.07 0 430.43 431 0 434.65 0"/>
      <polygon points="782.27 13.55 356.48 439.81 352.83 439.81 782.27 10.42 782.27 13.55"/>
      <polygon points="410.16 0 0 410.1 0 406.46 406.51 0 410.16 0"/>
      <polygon points="782.27 37.52 380.45 439.81 376.8 439.81 782.27 34.39 782.27 37.52"/>
      <polygon points="386.18 0 0 386.13 0 381.96 382.54 0 386.18 0"/>
      <polygon points="782.27 58.88 782.27 61.49 404.42 439.81 400.78 439.81 782.27 58.88"/>
      <polygon points="362.21 0 0 361.64 0 357.99 358.56 0 362.21 0"/>
      <polygon points="782.27 82.85 782.27 85.98 428.4 439.81 424.75 439.81 782.27 82.85"/>
      <polygon points="782.27 109.95 452.89 439.81 449.24 439.81 782.27 106.83 782.27 109.95"/>
      <polygon points="338.24 0 0 337.67 0 334.02 334.59 0 338.24 0"/>
      <polygon points="314.26 0 0 313.7 0 310.05 310.61 0 314.26 0"/>
      <polygon points="782.27 133.92 476.87 439.81 473.22 439.81 782.27 130.8 782.27 133.92"/>
      <polygon points="289.77 0 0 289.73 0 286.08 286.12 0 289.77 0"/>
      <polygon points="782.27 157.89 500.84 439.81 497.19 439.81 782.27 154.77 782.27 157.89"/>
      <polygon points="265.79 0 0 265.76 0 261.59 262.15 0 265.79 0"/>
      <polygon points="782.27 179.26 782.27 181.86 524.81 439.81 521.17 439.81 782.27 179.26"/>
      <polygon points="241.82 0 0 241.27 0 237.62 238.17 0 241.82 0"/>
      <polygon points="782.27 203.23 782.27 206.35 548.79 439.81 545.14 439.81 782.27 203.23"/>
      <polygon points="782.27 230.33 573.28 439.81 569.63 439.81 782.27 227.2 782.27 230.33"/>
      <polygon points="217.85 0 0 217.3 0 213.65 214.2 0 217.85 0"/>
      <polygon points="193.87 0 0 193.33 0 189.68 190.23 0 193.87 0"/>
      <polygon points="782.27 254.3 597.26 439.81 593.61 439.81 782.27 251.17 782.27 254.3"/>
      <polygon points="169.9 0 0 169.36 0 165.71 165.73 0 169.9 0"/>
      <polygon points="145.41 0 0 145.39 0 141.22 141.76 0 145.41 0"/>
      <polygon points="782.27 278.27 621.23 439.81 617.58 439.81 782.27 275.14 782.27 278.27"/>
      <polygon points="782.27 299.63 782.27 302.24 645.2 439.81 641.55 439.81 782.27 299.63"/>
      <polygon points="121.43 0 0 120.89 0 117.25 117.78 0 121.43 0"/>
      <polygon points="782.27 323.6 782.27 326.73 669.18 439.81 665.53 439.81 782.27 323.6"/>
      <polygon points="782.27 347.57 782.27 350.7 693.67 439.81 690.02 439.81 782.27 347.57"/>
      <polygon points="97.46 0 0 96.92 0 93.28 93.81 0 97.46 0"/>
      <polygon points="73.48 0 0 72.95 0 69.31 69.84 0 73.48 0"/>
      <polygon points="782.27 374.67 717.65 439.81 714 439.81 782.27 371.54 782.27 374.67"/>
      <polygon points="49.51 0 0 48.98 0 45.34 45.34 0 49.51 0"/>
      <polygon points="782.27 398.64 741.62 439.81 737.97 439.81 782.27 395.51 782.27 398.64"/>
      <polygon points="25.02 0 0 25.01 0 20.84 21.37 0 25.02 0"/>
      <polygon points="782.27 422.61 765.59 439.81 761.94 439.81 782.27 419.48 782.27 422.61"/>
      <path d="M1.04,0c-.09.02-.54.71-1.04.52v-.52h1.04Z"/>
    </g>
  </g>
</svg>