<?xml version="1.0" encoding="UTF-8"?>
<svg id="Camada_2" data-name="Camada 2" xmlns="http://www.w3.org/2000/svg" viewBox="0 0 1557.62 1599.44">
  <g id="Graphic_elements" data-name="Graphic elements">
    <path d="M1299.73,791.1c5.45-.21,10.79-.05,15.13-1.31-1.93.67-3.95-.53-6.2-.69l-53.45-3.7c-57.46-3.98-236-24.79-286.45-39.93-24.05-7.22-45.71-18.21-64.72-34.43-18.34-15.65-33.37-33.32-44.26-54.94-7.72-15.33-13.58-31.07-16.98-48.22-9.03-45.49-15.19-90.68-21.22-136.89-15.2-116.48-21.55-224.09-23.26-340.74-.02-1.64-4.74-58.82.19-56.09l.53-36.06,1.54-38.1h-4.68l-1.74,53.33c-2.34,71.47-.27,142.16,4.11,213.72,2.47,54.77,7.07,108.54,13.33,162.95,6.47,56.24,14.22,111.31,23.77,166.92,6.19,36.07,18.64,67.46,42.56,95.32,27.79,32.38,63.07,53.71,105.17,62.4,55.54,11.45,224.15,34.54,276.78,36.26.2-.82.09-1.82-.63-1.91-2.41-.33-21.84-.51-25.45-2.76,3.65-1.39,27.59,1.29,28,2.23.34.79.08,1.76.08,2.5,6.97.23,14.1,2.16,21.01.97l-4.15-2.1c6-.47,11.31-.43,16.33,1.41-2.49,1.74-4.93-.31-6.28,1.59,7.43,1.31,21.47,2.15,29.17,1.97,1.03-4.2-13.12.05-18.23-3.71ZM796.63,37.12c.86,9.51.83,19.01.03,29.13-.86-9.51-.83-19.01-.03-29.13ZM1265.81,789.42c1.42-.93,3.16-.87,5.13-.11-1.42.93-3.16.87-5.13.11ZM1297.36,791.86c-.28,0-.5-.22-.5-.5s.22-.5.5-.5.5.22.5.5-.22.5-.5.5Z"/>
    <path d="M875.18,0c-4.2,109.92-1.89,219.17,7.67,328.56,3.93,44.96,8.14,89.18,15.15,133.61l13.08,82.91c7.78,49.33,42.31,96.14,86.94,118.72,13.26,6.71,26.06,11.88,40.91,14.97,39.42,8.21,78.72,13.89,118.57,18.96l14.4,1.83c.95-1.69-1.66-1.96-1.92-4.11,4.43,1.25,7.94,3.74,11.84,1.47l.12-1.07c-6.22-.64-12.46-2.11-18.78-2.3.91,1.91,3.43.99,5.1,3.31-4.61.6-8.4-.74-12.4-1.35,1.79-1.17,2.97-1.17,4.08-1.77-.68-.92-1.67-.92-3.21-1.13-38.27-5.31-75.79-10.6-113.71-18.39-27.21-5.59-51.28-17.05-72.23-35.04-11.97-10.27-22.41-21.75-30.89-35.13-19.37-30.53-22.76-51.77-28.44-86.9-14.73-91.11-25.09-182.54-29.85-275.08-4.24-80.83-4.72-161.23-1.7-242.09h-4.69Z"/>
    <path d="M1203.41,271.07c3,18.78,4.59,37.21,10.61,54.97,7.51,22.15,23.96,38.64,45.31,47.31,10.96,4.45,21.76,6.58,33.49,8.55,29.76,4.99,58.53,8.71,89.4,11.32,58.95,5.65,116.73,7.19,175.41,3.44v-6.05c-22.22,1.78-44.12,2.37-67.39,1.95-37.15.31-72.11-1.37-108.41-5.11-35.05-3.23-68.55-7.52-103.03-13.97-27.67-5.18-51.42-23.35-59.98-50.41-4.89-15.46-6.88-30.96-9.06-47.04l-7.01-51.91-3.82-48.21c-3.88-58.59-3.86-116.51-.53-175.92h-5.46c-4.06,71.87-3.22,142.27,3.14,213.02,2.03,19.92,4.2,38.4,7.34,58.05Z"/>
    <path d="M1332.98,303.14c73.71,13.77,148.49,18.29,224.64,13.04v-6.19c-71.72,5.18-142.43,1.35-212.88-10.35-12.99-2.16-24.6-5.34-34.91-13.48-9.83-7.77-16.41-18.71-19.23-31.12-5.15-22.69-7.55-44.75-9.87-68.11-5.57-52.66-6.7-104.73-3.96-157.61l1.75-29.31h-5.29l-3.28,64.3c-1.43,62.9,3.19,125.08,13.84,186.95,4.04,26.53,23.07,45.63,49.19,51.88Z"/>
    <path d="M1392.63,228.54c40.94,7.13,82.12,10.32,124,9.28,13.95-.43,27.05-1.09,40.99-2.71v-5.9c-55.34,5.55-109.8,2.97-164.43-6.53-15.83-4.1-25.88-15.02-28.93-30.48-6.48-35.15-9.22-69.98-8.98-106.05-.58-29.07,1.23-57.39,3.75-86.16h-5.33c-5.88,64.12-6.5,130.75,4.96,193.32,3.32,18.12,15.8,30.79,33.97,35.22Z"/>
    <path d="M1053.91,390.14l6.8,39.32c7.94,45.9,44.1,86.17,89.76,97.58,17.89,4.47,34.9,7.3,53.3,10.03,116.11,17.21,234.89,26.47,353.85,20.41v-5.9c-38.24,2.21-75.68,2.75-113.79,1.36l-58.01-2.13c-73.91-2.71-146.73-12.82-219.68-25.48-48.76-8.46-89.07-43.19-99.11-92.56-12.11-59.52-18.61-120.09-24.07-180.92-6.01-83.97-7.31-167.51-3.8-251.83h-4.84l-1.64,53.34c-2.1,89.8,1.79,178.84,12.1,267.98,2.11,23.49,5.14,45.74,9.13,68.81Z"/>
    <path d="M1557.62,631.85l-44.07,1.57c-114.3,4.07-289.56-11.8-403.29-32.38-24.51-4.43-46.31-13.09-66.24-28.14-21.98-16.61-38.55-39.52-47.26-65.79-6.19-18.67-8.99-37.17-11.91-56.45l-8.29-54.74c-16.68-110.15-20.95-255.64-18.52-367.51l1.18-28.4h-5.01c-2.03,43.75-2.31,85.95-1.71,129.06.13,28.66.3,55.75,2.48,84.2l9.22,119.95c3.92,50.92,11.81,100.38,21.28,150.43,8.55,45.21,30.11,79.16,69.52,103.08,13.73,8.33,28.57,13.98,44.38,17.38,25.9,5.56,51.13,9.57,77.41,12.91l63.91,8.12,95.18,8.9c73.83,6.9,147.51,6.73,221.74,3.75v-5.93Z"/>
    <path d="M1135.57,372.66c8.51,43.14,42.65,75.49,85.56,82.01l73.71,11.2,63.64,6.97c66.61,7.29,131.91,8.23,199.15,4.55v-6.77l-101.93,2.11c-78.24-1.52-155.17-9.8-232.07-23.14-42.43-7.36-72.87-34.8-82.84-77.08-21.28-123.01-28.48-247.39-21.96-372.5h-4.89l-2.63,85.22c-.32,51.78,1.84,102.33,6.72,153.91,4.27,45.12,8.83,89.38,17.54,133.53Z"/>
    <path d="M1557.62,1433.06c-95.72,2.8-191.42,2.77-287.64-1.15l-104.16-4.25-196.11-13.05-70.85-6.06-82.88-8.18-124.95-15.08c-49.88-6.02-98.28-15.6-146.99-28.14-42.28-10.89-82.66-25.78-121.46-45.5-22.53-11.45-42.14-25.8-62.1-40.97-12.74-9.68-23.28-20.5-34.27-32.03-44.19-46.39-71.58-110.2-83.06-173.15-16.86-92.47-32.03-184.87-42.04-278.63l-19.11-178.99c-13.5-126.41-21.75-333.72-20.99-461.73.29-49.25.52-97.66,2.7-146.16h-2.23c-1.79,58.82-3.01,117.6-2.79,176.89.01,3.11-.31,5.34-.26,8.37l1.76,106.65,8.67,182.11,11.26,144.78.66,9.15,1.09,10.99,6.5,60.91,2.87,29.07,2.38,20.15,3.15,27.99,14.85,113.89,17.79,114.11c4.73,30.35,9.47,59.47,16.78,89.43,11.28,46.27,31.73,89.82,61.14,127.27,51.71,65.86,124.02,101.75,202.04,127.41,22.29,7.33,44.24,12.28,66.91,18.14l24.1,4.82,74.57,13.21,15.35,2.71,84.74,10.9,49.91,5.56,38.83,4.19,14.41,1.12,99.54,8.64,30.22,2.44c3.7.3,7.64.62,11.19.89l13.01.98,15.89,1,54.49,3.8,22.7,1.15c117.31,5.96,234.19,11,351.8,9.04l80.59-1.34v-3.35Z"/>
    <path d="M1557.62,1513.12l-67.98,1.73-212.62-1.82-58.16-2.24-98.87-4.53-74.59-4.26-131.2-9.77-119.48-11.18c-69.95-6.54-138.99-14.49-207.9-28.05l-52.4-10.32c-25.26-4.98-49.31-11.62-74.01-18.82-22.44-6.54-43.72-13.57-65.03-23.1-19.31-6.4-35.43-16.93-54.47-24.83,57.13,34,151.44,61.56,217.07,73.56l41.7,7.62c123.15,22.52,362.53,45.15,489.07,50.62l226.1,9.76c81.38,3.51,162.1,1.84,242.79-.05v-4.32Z"/>
    <path d="M173.38,1143.95c-7.02-28.82-12.54-56.76-16.97-86.19l-20.89-138.94-23.49-192.04-7.38-75.89-7.51-91.14C82.11,377.22,77.32,182.99,83.7,0h-1.68l-2.17,73.26-.26,166.81,1.51,63.16,10.43,211.91,7.12,93.16,8.48,91.76c7.03,76.07,15.67,151.05,27.05,226.62l15.25,101.31,7.21,42.93c6.09,36.27,12.95,71.62,24.2,106.64,6.89,21.46,14.05,41.58,24.46,61.55,15.24,29.23,33.67,56.71,57.67,79.21l-19.26-23.09c-36.85-44.55-56.72-95.39-70.33-151.28Z"/>
    <path d="M1557.62,1594.37c-42.74,1.69-85.38,2.06-128.81,1.53l-124.85-1.52-128.37-3.99-95.66-4.36-147.96-9.18-169.58-14.43h-8.69c-1.08.96.13,1.39,1.47.97l15.71,2.67c3.62.62,5.12.26,8.47.55l118.1,10.38,128.5,8.86,152.96,7.6,134.56,4.39c80.92,2.64,163.53,1.41,244.15.44v-3.92Z"/>
    <path d="M14.27,544.21l-6.24-103.99c1.5,34.71,3.46,69.36,6.24,103.99Z"/>
    <path d="M94.76,1187.5l-9.37-44.9-14.22-85.81-13.52-93.01c-1.95-13.38-3.43-25.97-5.01-39.2l-2.64-22.2-6.44-54.09-1.03-10.5-7.82-69.09-5.96-62.94-2.95-31.04-2.96-35.96c-1.07-13.08-1.96-25.74-3.33-38.83l-.78-7.4c-1.69-16.11-3.16-32.21-4.46-48.32l2.62,43.58c.18,2.93-.01,4.84.32,7.42,2.19,17.13,2.79,30.64,4.26,47.7l3.74,43.38,4.02,41.98,3.73,36.74,8.41,78.05,6.69,58.49,2.62,18.49,2.78,23.79,7.55,54.91,15.97,103.91,10.98,60.87c4.21,23.34,9.44,45.36,15.78,68.29,9.67,34.94,22.18,68.97,42.41,99.14-10.39-21.01-22.08-40.27-29.47-62.62-8.98-26.85-16.15-53.11-21.93-80.81Z"/>
    <path d="M3.18,288.14l-.69-35.04-.85-20.13.08-146.59,1.04-12.23c1.22-14.35,0-28.46.45-43.01L4.17,0h-1.66c-.24,5.97-.63,12-.78,18.18l-.72,29.11L.1,87.79l-.1,142.11,1.02,40.08.78,34.09,1.05,31.94,1.9,47.05,1.29,24.06,1.99,33.1c-1.54-35.58-2.62-71.22-3.6-106.96l-1.24-45.13Z"/>
    <path d="M539.94,1531.83c-6.04-1.11-11.51-2.53-17.56-3.69-19.32-3.73-38.08-7.63-57.1-12.65-4.19-1.11-17.87-3.47-20.68-5.45-2.58-1.81-6.7-.62-9-1.96-4.51-2.62-9.12-2.22-13.46-3.58l-13.14-4.11c-4.84-1.51-9.69-3.79-14.64-4.98l-11.31-2.74c4.11.99-32.31-11.44-28.7-12.02,28.94,9.54,56.92,19.29,86.27,26.73l34.95,8.87,48.6,10.74c5.61,1.24,10.8,2.4,16.41,3.43l38.94,7.17,23.76,3.99,29.6,4.52c40.21,6.15,80.38,9.37,120.12,16.26-41.98-1.65-81.54-8.07-121.85-14.57l-32.07-5.17-22.11-4-37.05-6.78Z"/>
    <path d="M353.98,1479.99c.49,3.8-28.85-10.43-27.46-9.64-3.48-1.99-23.28-8.13-28.38-13.83l55.84,23.47Z"/>
    <path d="M284.57,1337.44c-8.52-4.68-14.62-12.42-20.74-19.03l20.74,19.03Z"/>
    <path d="M338.17,1374.15c-6.03-2.44-11.59-6.02-17.01-10.18,6.16,2.42,11.41,5.75,17.01,10.18Z"/>
    <path d="M213,1404.97c-1.98-2.67-12.12-8.07-13.15-10.78-.87-2.31-11.57-8.78-13.18-13.62l27.29,23.56c.5.43,1.4.39,1.48.98.05.36-.52.79-.8,1.09-.84.9-.98-.34-1.64-1.23Z"/>
    <path d="M289.63,1452.2c-3.71.63-5.27-2.75-8.48-3.48-2.67-.39-5.05-1.11-5.62-4.16,4.82,2.49,9.22,4.18,14.1,7.63Z"/>
    <path d="M265.22,1439.87c-4.62-3.64-13.92-5.49-16.81-11.27l24.41,14.21c-3.07,1.15-5.4-1.2-7.6-2.93Z"/>
    <path d="M171.13,1362.84c-.02,5.72-8.99-9.62-9.51-10.4l9.51,10.4Z"/>
    <path d="M320.31,1363.35c-3.14-1.95-7.06-2.65-9.98-6.42,3.78.69,6.66,3.43,9.98,6.42Z"/>
    <path d="M297.68,1455.99c-2.87.33-5.33-1.23-7.42-3.12,2.84.65,5.04,1.4,7.42,3.12Z"/>
    <path d="M247.66,1428.36c-2.66-.76-6.15-1.27-7.23-4.79,2.61,1.1,4.67,1.88,7.23,4.79Z"/>
    <path d="M149.85,1336.37c-1.39-1.13-2.64-2.47-2.92-4.71,1.37,1.12,2.33,2.29,2.92,4.71Z"/>
    <path d="M160.98,1351.75c-2.88-2.1-3.8-4.88-5.43-7.13,2.89,2.67,4.78,4.45,5.43,7.13Z"/>
    <path d="M288.56,1340.96c-1.26-.79-2.61-1.35-3.31-3.07,1.69.15,2.91,1.11,3.31,3.07Z"/>
    <path d="M174.06,1367.28c-1.43-.01-2.41-.95-2.6-3.05,1.55.25,2.15,1.02,2.6,3.05Z"/>
    <path d="M174.97,1368.8c.14-.83,13.81,12.85,11.09,11.24-5.1-2.91-8.28-6.94-11.09-11.24Z"/>
    <path d="M217.55,1406.29c.14,2.57-1.07,2.87-1.23.55.13-1.15.66-1.59,1.23-.55Z"/>
    <circle cx="339.9" cy="1375.11" r=".5"/>
    <circle cx="273.93" cy="1444.08" r=".5"/>
    <path d="M1557.62,1274.02l-43.11.99c-122.25,2.81-244.15,1.05-366.06-9.41l-182.36-15.64-77.89-8.58-76.2-9.5-106.71-16.85c-28.3-4.47-55.11-10.73-82.65-18.27-21.94-6.01-41.85-13.86-62.18-24-45.92-22.91-87.42-53.86-116.71-96.45-22.01-31.99-41.89-74.69-48.24-113.05l-20.6-124.34-18.29-132.91c-11.73-85.22-19.32-170.88-25.33-257-10.45-149.74-13.01-299.59-7.48-449h-3.35l-2.16,87.28v139.53s1.85,69.29,1.85,69.29l3.26,80.3,5.61,91.65,8,94,19.83,177.67,14.96,105,18.9,114.11c10.26,61.96,42.94,123.64,89.88,165.52,37.83,33.74,77.07,55.68,125.1,71.51,95.04,31.31,309.27,54.25,413.9,63.74l26.51,2.41,9.29.75,13.03,1.02,15.76,1.07c60.72,4.12,120.62,9.34,181.67,11l114.05,3.12,177.75-1.46v-3.48Z"/>
    <path d="M1557.62,1353.72c-27.39,1.53-54.8,1.66-82.81,1.68l-70.37.04c-97.1.06-193.38-3.69-290.36-10.68l-84.1-6.06-170.75-16.89-60.71-7.38c-54.06-6.57-107.09-14.65-160.55-25.14-19.48-3.82-37.53-8.75-56.55-13.49-10.46-2.61-19.81-6.72-30.07-9.91-20.29-6.29-38.69-14.76-57.69-24.4-29.49-14.96-57.27-31.89-81.58-54.3-12.16-11.21-22.82-22.26-33.06-35.3-21.5-27.38-37.63-58.43-48.05-91.74-5.17-16.52-8.84-32.18-12.12-49.3-12.29-64.22-21.31-128.5-30.38-193.41-9.53-68.21-18.05-135.83-24.14-204.36l-7.64-86.07-4.3-58.38c-5.18-70.3-9.28-139.83-10.11-210.46l-1.31-111.07c-.58-49.51.24-98.25,2.5-147.09h-3.08c-2.04,65.79-2.58,131.65-2.06,198.15.67,86.63,4.5,172.4,10.19,258.61l3.79,57.39,14.61,160.72,15.34,123.5,13.14,92.83,12.36,77.58c3.99,25.05,8.49,48.91,14.41,73.49,9.03,37.54,28.31,80.18,52.36,110.55,20.31,25.64,43.88,47.93,71.51,65.97,62.32,40.68,118.27,58.5,190.58,74.11,30.23,6.53,59.61,11.05,90.29,15.85,62.71,9.8,125.36,16.5,188.6,23.1,76.74,8,153.1,13.4,229.8,18.75l16.68,1.16,98.02,4.36c97.27,4.33,200.32,3.5,297.61,1.36v-3.78Z"/>
    <path d="M1557.62,1193.93c-137.76,3.51-305.32,1.07-440.78-11.94l-135.05-12.97c-65.98-6.34-206.35-25.87-269.97-39.66-44.45-9.64-85.07-21.12-123.06-46.99-18.71-12.75-35.69-26.43-50.99-43.3-38.04-41.96-62.14-94.01-71.09-149.95l-16.67-104.11-8.25-56.2c-17.23-117.36-37.06-324.52-39.07-441.66l-2.15-125.05c-.93-54.45-.27-108.33,2.65-162.08h-3.79l-1.81,78.12-.39,75.2,2.43,143.81,10.62,183.48c5.69,98.28,37.27,335.11,57.32,432.64,7.38,35.91,23.4,69.47,43.71,99.55,13.92,20.61,30.7,38.25,49.47,54.26,34.05,29.05,74.28,48.19,117.55,59.28,35.81,9.18,71.14,15.8,107.68,21.1l88.22,12.81,170.43,19.69c103.89,12,307.52,21.53,412.07,19.76l100.92-1.72v-4.06Z"/>
    <path d="M1557.62,1113.89l-48.97,1.31-153.91-1.23c-97.6-.78-194.75-6.69-291.68-18.68l-179.1-22.16-79.79-12.29-56.68-10.58c-72.47-13.52-141.54-66.6-176.73-132.21-9.57-17.85-16.87-36.24-21.98-55.94-7.09-27.36-11.56-54.29-15.84-82.17l-9.72-63.32-13.62-101.51-13.02-122.22c-5.67-53.25-8.9-105.58-11.19-158.98l-3.98-92.8-.95-90,.7-97.92,1.79-53.21h-3.83c-1.71,45.53-3,90.88-2.43,137.12l1.57,125.59,3.76,85.42,7.45,108.94,14.87,149.97c7.78,78.49,20.52,155.72,34.79,233.12,5.5,29.86,15,57.9,29.8,84.05,33.3,58.85,86.7,102.65,150.88,123.68,20.6,6.75,41.27,10.58,62.65,14.32l23.65,4.14c10.35,1.81,20.59,3.03,31,4.76l17.19,2.86,13.19,1.77,15.61,2.24,47.16,6.3c144.22,19.27,361.36,37.24,505.39,35.72l121.96-1.29v-4.84Z"/>
    <path d="M1557.62,1033.1l-35.96,1.28-137.88-.18c-158.86-.21-408.82-27.68-566.75-56.84-28.45-5.25-54.79-14.73-79.65-28.6-16.81-9.37-31.49-20.55-45.66-33.42-24.47-22.22-43.32-48.54-56.49-78.71-7.2-16.5-12.73-32.36-16.03-50.41-27.84-151.81-45.35-304.87-54.02-459.18-3.15-56.05-5.02-111.79-5.06-167.73l-.05-65.22,2-94.09h-4.64l-1.91,115.25c-2.04,123.51,9.56,320.45,25.24,443.61l11.3,88.77,7.79,52.26,13.51,82.06c3,18.22,8.83,34.65,15.3,51.7,4.35,11.45,9.8,21.34,16.09,31.93,28.41,47.81,71.77,83.83,123.9,103.46,21.45,8.08,42.87,12.76,65.57,16.4l92.92,14.87,162.62,20.31,64.09,6.04,67.6,5.28,20.43,1.05c4.52.23,8.94-.43,13.18,1.79,6.13-1.75,12.15-.02,18.21.22l22.74.88c65.14,2.53,129.37,4.87,194.63,3.58l66.99-1.33v-5.03Z"/>
    <path d="M1557.62,952.87c-49.65,2.69-99.41,2.34-149.85,1.51-61.66-1.01-122.42-2.76-183.77-8.49l-131.22-12.25-132.72-17.48c-33-4.35-64.64-9.74-97.05-17.01-45.9-10.31-86.63-34.41-117.75-69.35-33.87-38.03-48.27-79.12-56.37-128.94l-8.13-50.01c-11.83-72.76-21.63-145.13-27.13-218.78l-8.65-115.85-4.04-86.12-1.62-89.73.58-84.19,1.6-56.18h-4.34l-2.6,130.16c-1.11,55.4,1.04,109.61,4.58,164.8l5.28,82.17c6.41,99.79,22.94,225.01,39.65,323.96,4.1,24.26,8.97,47.17,18.49,69.72,16.33,38.71,41.33,71.54,75.67,95.79,27.35,19.31,57.04,32.82,89.93,38.82l52.66,9.62c61.81,11.29,123.53,18.84,186.02,24.97l82.1,8.07,130.98,8.45c79.51,5.13,158.63,4.58,237.7,1.77v-5.43Z"/>
    <path d="M1171.93,859.79c-1.5-.44-3.68.35-5-.24-.01,1.77-1.98,1.28-3.49,1.36-1.16.06-1.87-.7-1.5-2.14-66.35-7.16-132.31-15.86-198.59-26.82-15.51-2.56-29.39-5.06-44.52-8.68-46.36-11.1-86.58-37.89-115.07-75.96-22.22-29.7-32.74-60.95-38.78-97.41l-10.12-61.13c-18.83-113.72-33.29-291.74-35.11-407.63-.96-60.83-1.23-121.05,1.43-181.14h-5.01l-1.12,41.87.03,145.84,6.26,135.23,9.8,115.42c6.61,77.85,17.86,154.5,32.77,231.14,4.91,25.23,14.12,48.58,27.92,69.92,22.74,35.16,59.66,65.65,98.9,80.41,55.22,20.78,222.66,38.11,287.14,45.02,5.05-6.33-7.53-.11-5.92-5.06Z"/>
    <path d="M1557.62,712.05l-66.98,2c-75.34,2.25-149.69-1.75-224.64-9.49l-84.09-8.69-.12,1.07c-3.9,2.26-7.41-.22-11.84-1.47.26,2.15,2.88,2.42,1.92,4.11,31.14,3.96,62.05,7.47,94.12,10.28,98.16,8.61,193.95,12.09,291.62,8.26v-6.06Z"/>
    <path d="M1557.62,872.78c-69.35,3.35-138.76,3.52-208.62-.41l-84.12-4.73c.23,1.23-.8,1.21-1.51,1.24-1.33.05-2.8.2-2.49-1.4-2.82-.24-6.27-1.02-9.04.42-1.7.88-4.03,1.08-4.98-1.13-2.02-.09-4.13-.85-6.16.1-1.68.79-4.04.83-4.84-1.08-2.31-.98-4.65,1.1-6.91-.17-.89,1.12-2.75.81-4.14,1.92,11.28-.04,4.85,2.43,17.08,1.37-.06,1.16-1.52.86-1.71,1.75l51.63,4.02c2.84.22,5.14.47,8.04.6l37.79,1.6,23.33,1.04,141.54,1.9,7.38.11,47.73-1.23v-5.93Z"/>
    <path d="M1557.62,792.44c-27.75,1.53-55.44,2.28-83.84,1.83l-92.97-1.5-65.95-2.99c-4.33,1.26-9.68,1.1-15.13,1.31,5.11,3.76,19.26-.49,18.23,3.71,43.38,3.25,86.6,4.64,130.81,4.88,36.82.2,72.77.14,108.86-1.46v-5.79Z"/>
    <path d="M798.52,74.16l.32,30.06c.09,8.43.14,16.48.32,24.88-.13.73-.21,1.54-.83,1.15-.02-1.64-4.74-58.82.19-56.09Z"/>
    <path d="M1261.88,790.97l-2-.07c.2-.82.09-1.82-.63-1.91-2.41-.33-21.84-.51-25.45-2.76,3.65-1.39,27.6,1.29,28,2.23.34.79.08,1.76.08,2.5Z"/>
    <path d="M796.65,66.25c-.86-9.51-.83-19.01-.03-29.13.86,9.51.83,19.01.03,29.13Z"/>
    <path d="M1288.79,792.84c-2.52.42-4.32-.1-5.9-.9l-4.15-2.1c6-.47,11.31-.43,16.33,1.41-2.49,1.74-4.93-.31-6.28,1.59Z"/>
    <path d="M1163.13,693.57c.91,1.91,3.43.99,5.1,3.31-4.61.6-8.4-.74-12.4-1.35,1.79-1.17,2.97-1.17,4.08-1.77.79-.42,2.33-.22,3.22-.19Z"/>
    <path d="M1270.95,789.31c-1.42.93-3.16.87-5.13.11,1.42-.93,3.16-.87,5.13-.11Z"/>
    <circle cx="1297.36" cy="791.36" r=".5"/>
    <path d="M1180.8,860.84c-.07.78-.38,2.83,1.03,2.92,2.21.14,4.2.62,5.9-.56-2-.63-2.84-.28-4.1-.49-.64-.11-.89-.73-.57-1.76l45.02,3.71c.75.06,1.22.36.87.96-.89,1.12-2.75.81-4.14,1.92,11.28-.04,4.85,2.43,17.08,1.37-.06,1.16-1.52.86-1.71,1.75l-11.1-.67-14.55-1.22-36.69-3.93c5.05-6.33-7.53-.11-5.92-5.06,2.86.83,5.95.61,8.87,1.05Z"/>
    <path d="M1240.7,866.88c-1.68.79-4.04.83-4.84-1.08,1.64-.75,3.97-.7,4.84,1.08Z"/>
    <path d="M1251.84,867.9c-1.7.88-4.03,1.08-4.98-1.13,1.72.08,4.45-1.42,4.98,1.13Z"/>
    <path d="M1183.06,860.95c-.32,1.03-.07,1.65.57,1.76,1.25.21,2.1-.14,4.1.49-1.69,1.18-3.69.7-5.9.56-1.41-.09-1.11-2.14-1.03-2.92.74.11,1.51.05,2.26.11Z"/>
    <path d="M1166.93,859.55c-.01,1.77-1.98,1.28-3.49,1.36-1.16.06-1.87-.7-1.5-2.14,1.85.2,3.27,0,5,.78Z"/>
    <path d="M1264.88,867.64c.23,1.23-.8,1.21-1.51,1.24-1.33.05-2.8.2-2.49-1.4,1.35-1.05,2.74.09,4,.16Z"/>
  </g>
</svg>