<svg width="26" height="40" viewBox="0 0 26 40" fill="none" xmlns="http://www.w3.org/2000/svg">
<path d="M21.4487 0H3.82055C1.71565 0 0 1.71217 0 3.82052V21.4487C0 23.5536 1.7122 25.2692 3.82055 25.2692H6.72123V21.9792H3.82055C3.52772 21.9792 3.29 21.7415 3.29 21.4487V3.82052C3.29 3.52769 3.52772 3.28999 3.82055 3.28999H21.4487C21.7415 3.28999 21.9792 3.52769 21.9792 3.82052V21.4487C21.9792 21.7415 21.7415 21.9792 21.4487 21.9792H10.2042V25.2692H21.4487C23.557 25.2692 25.2692 23.557 25.2692 21.4487V3.82052C25.2692 1.71562 23.557 0 21.4487 0Z" fill="#27348B"/>
<mask id="mask0_101_634" style="mask-type:luminance" maskUnits="userSpaceOnUse" x="8" y="3" width="18" height="37">
<path d="M11.8495 21.9102C11.8495 19.795 12.5075 19.0922 13.7098 17.8106L21.9779 9.11888V22.8163C21.9779 24.0496 21.7609 25.3897 20.1899 26.8435L11.8461 35.7247V21.9102H11.8495ZM21.9779 3.71021C21.9779 4.24074 21.7678 4.58179 20.8376 5.5464L11.3018 15.5714C9.95134 17.008 8.55957 18.4962 8.55957 21.9137V37.1131C8.55957 39.1077 9.77563 40 10.9814 40C11.8909 40 12.8107 39.5073 13.7202 38.5427L22.474 29.2205C24.982 26.8745 25.2713 24.4457 25.2713 22.8197V3.71365H21.9779V3.71021Z" fill="white"/>
</mask>
<g mask="url(#mask0_101_634)">
<path d="M5.40918 3.98572L25.1422 2.25977L28.4184 39.7208L8.68884 41.4468L5.40918 3.98572Z" fill="url(#paint0_linear_101_634)"/>
</g>
<defs>
<linearGradient id="paint0_linear_101_634" x1="7.27167" y1="22.7051" x2="26.7712" y2="20.9991" gradientUnits="userSpaceOnUse">
<stop stop-color="#42A7DF"/>
<stop offset="0.0801" stop-color="#3FA2DA"/>
<stop offset="0.2115" stop-color="#3992CD"/>
<stop offset="0.378" stop-color="#3377B8"/>
<stop offset="0.5729" stop-color="#31549B"/>
<stop offset="0.7828" stop-color="#2D2E7E"/>
<stop offset="1" stop-color="#2D2E7E"/>
</linearGradient>
</defs>
</svg>
