<svg width="944" height="842" viewBox="0 0 944 842" fill="none" xmlns="http://www.w3.org/2000/svg">
<mask id="mask0_101_383" style="mask-type:alpha" maskUnits="userSpaceOnUse" x="0" y="0" width="944" height="842">
<rect width="944" height="842" fill="url(#paint0_linear_101_383)"/>
</mask>
<g mask="url(#mask0_101_383)">
<path d="M1064.87 -16H646.643C596.704 -16 556 24.6212 556 74.6418V492.869C556 542.808 596.622 583.511 646.643 583.511H715.461V505.456H646.643C639.695 505.456 634.055 499.816 634.055 492.869V74.6418C634.055 67.6945 639.695 62.0549 646.643 62.0549H1064.87C1071.82 62.0549 1077.46 67.6945 1077.46 74.6418V492.869C1077.46 499.816 1071.82 505.456 1064.87 505.456H798.094V583.511H1064.87C1114.89 583.511 1155.51 542.89 1155.51 492.869V74.6418C1155.51 24.703 1114.89 -16 1064.87 -16Z" fill="#27348B"/>
<mask id="mask1_101_383" style="mask-type:luminance" maskUnits="userSpaceOnUse" x="759" y="72" width="397" height="861">
<path d="M837.11 503.821C837.11 453.636 852.721 436.963 881.246 406.558L1077.4 200.346V525.316C1077.4 554.577 1072.26 586.371 1034.99 620.862L837.028 831.569V503.821H837.11ZM1077.4 72.0255C1077.4 84.6124 1072.42 92.704 1050.35 115.589L824.115 353.432C792.075 387.514 759.056 422.823 759.056 503.902V864.508C759.056 911.831 787.907 933 816.513 933C838.091 933 859.914 921.312 881.491 898.427L1089.18 677.258C1148.68 621.598 1155.54 563.976 1155.54 525.398V72.1073H1077.4V72.0255Z" fill="white"/>
</mask>
<g mask="url(#mask1_101_383)">
<path d="M684.322 78.5645L1152.49 37.6163L1230.22 926.38L762.132 967.328L684.322 78.5645Z" fill="url(#paint1_linear_101_383)"/>
</g>
<path d="M285.869 387H-132.357C-182.296 387 -223 427.621 -223 477.642V895.869C-223 945.808 -182.378 986.511 -132.357 986.511H-63.539V908.456H-132.357C-139.305 908.456 -144.945 902.816 -144.945 895.869V477.642C-144.945 470.694 -139.305 465.055 -132.357 465.055H285.869C292.817 465.055 298.456 470.694 298.456 477.642V895.869C298.456 902.816 292.817 908.456 285.869 908.456H19.0939V986.511H285.869C335.89 986.511 376.512 945.89 376.512 895.869V477.642C376.512 427.703 335.89 387 285.869 387Z" fill="#27348B"/>
<mask id="mask2_101_383" style="mask-type:luminance" maskUnits="userSpaceOnUse" x="-20" y="475" width="397" height="861">
<path d="M58.11 906.821C58.11 856.636 73.7212 839.963 102.246 809.558L298.405 603.346V928.316C298.405 957.577 293.256 989.371 255.986 1023.86L58.0282 1234.57V906.821H58.11ZM298.405 475.026C298.405 487.612 293.42 495.704 271.352 518.589L45.1147 756.432C13.0754 790.514 -19.9443 825.823 -19.9443 906.902V1267.51C-19.9443 1314.83 8.90662 1336 37.5131 1336C59.0906 1336 80.9139 1324.31 102.491 1301.43L310.175 1080.26C369.677 1024.6 376.542 966.976 376.542 928.398V475.107H298.405V475.026Z" fill="white"/>
</mask>
<g mask="url(#mask2_101_383)">
<path d="M-94.6777 481.564L373.489 440.616L451.217 1329.38L-16.8678 1370.33L-94.6777 481.564Z" fill="url(#paint2_linear_101_383)"/>
</g>
</g>
<defs>
<linearGradient id="paint0_linear_101_383" x1="1022.5" y1="-56.0689" x2="6.09508" y2="830.494" gradientUnits="userSpaceOnUse">
<stop stop-color="#D9D9D9"/>
<stop offset="1" stop-color="#D9D9D9" stop-opacity="0"/>
</linearGradient>
<linearGradient id="paint1_linear_101_383" x1="728.51" y1="522.681" x2="1191.14" y2="482.206" gradientUnits="userSpaceOnUse">
<stop stop-color="#42A7DF"/>
<stop offset="0.0801" stop-color="#3FA2DA"/>
<stop offset="0.2115" stop-color="#3992CD"/>
<stop offset="0.378" stop-color="#3377B8"/>
<stop offset="0.5729" stop-color="#31549B"/>
<stop offset="0.7828" stop-color="#2D2E7E"/>
<stop offset="1" stop-color="#2D2E7E"/>
</linearGradient>
<linearGradient id="paint2_linear_101_383" x1="-50.4901" y1="925.681" x2="412.136" y2="885.206" gradientUnits="userSpaceOnUse">
<stop stop-color="#42A7DF"/>
<stop offset="0.0801" stop-color="#3FA2DA"/>
<stop offset="0.2115" stop-color="#3992CD"/>
<stop offset="0.378" stop-color="#3377B8"/>
<stop offset="0.5729" stop-color="#31549B"/>
<stop offset="0.7828" stop-color="#2D2E7E"/>
<stop offset="1" stop-color="#2D2E7E"/>
</linearGradient>
</defs>
</svg>
