<svg width="20" height="20" viewBox="0 0 20 20" fill="none" xmlns="http://www.w3.org/2000/svg">
<path d="M0.0271875 9.29953C0.01125 9.53141 0 9.76422 0 10.0002C0 10.2508 0.0125 10.4986 0.030625 10.7445L10.0513 17.1758L19.97 10.7377C19.9878 10.4939 20 10.2486 20 10.0002C20 9.76047 19.9884 9.52328 19.9719 9.28766L9.98531 2.82422L0.0271875 9.29953ZM15.6112 10.0002C15.6112 10.3758 15.5725 10.7427 15.4988 11.0967C15.4997 11.0973 15.5003 11.098 15.5013 11.0989C15.4891 11.158 15.4719 11.2158 15.4575 11.2745C15.4491 11.3089 15.4409 11.3436 15.4319 11.378C15.3825 11.5667 15.3263 11.7536 15.2563 11.9358C15.2547 11.9345 15.2534 11.933 15.2519 11.9317C14.4741 13.948 12.5156 15.3795 10.2197 15.3795C7.24656 15.3748 4.84031 12.9611 4.845 9.98797C4.84594 9.45109 4.92625 8.93328 5.07344 8.44422C5.06781 8.44484 5.06219 8.44516 5.05625 8.44547C5.14906 8.14078 5.26906 7.84516 5.41531 7.56234C5.41937 7.56203 5.42313 7.56203 5.42719 7.56172C6.3175 5.80953 8.13688 4.60953 10.2366 4.61297C13.2081 4.61734 15.6138 7.02891 15.6112 10.0002Z" fill="#EAD11F"/>
<path d="M5.07415 8.44356C4.92727 8.93262 4.84665 9.45044 4.84571 9.98731C4.84102 12.9604 7.24727 15.3742 10.2204 15.3789C12.5166 15.3789 14.4748 13.9473 15.2526 11.9311C13.3357 10.1001 9.83634 7.99419 5.07415 8.44356ZM5.74571 12.0111L5.63165 11.9476L5.57259 11.9761L5.51758 12.0026L5.53884 11.897L5.54321 11.8757L5.45446 11.7829L5.58134 11.7661L5.6404 11.652L5.6954 11.7704L5.82227 11.7957L5.72509 11.8801L5.74571 12.0111ZM5.82196 9.29419L5.6529 9.37856L5.69509 9.18419L5.55571 9.04481L5.75009 9.02356L5.83446 8.85044L5.91883 9.02794L6.10477 9.06169L5.9654 9.19262L5.99071 9.387L5.82196 9.29419ZM10.0513 11.7914L10.1441 11.7786L10.1863 11.6942L10.2285 11.7786L10.3213 11.7998L10.2538 11.8632L10.2666 11.9604L10.1823 11.9139L10.0979 11.9561L10.1191 11.8589L10.0513 11.7914ZM10.4107 14.2717L10.3432 14.2336L10.2673 14.2717L10.2841 14.1873L10.2288 14.1279L10.3091 14.1195L10.3473 14.0476L10.381 14.1236L10.4613 14.1364L10.4023 14.1914L10.4107 14.2717ZM13.1445 14.1873L13.0429 14.1282L12.9413 14.1832L12.9666 14.0648L12.8863 13.9804L13.0004 13.9636L13.051 13.8579L13.0976 13.9679L13.2116 13.9892L13.1273 14.0736L13.1445 14.1873ZM14.1838 12.5267L14.091 12.4801L13.9982 12.5223L14.0195 12.4251L13.9476 12.3576L14.0491 12.3448L14.0998 12.2604L14.142 12.3448L14.2476 12.3661L14.1673 12.4295L14.1838 12.5267ZM14.6698 11.8504L14.712 11.7661L14.7541 11.8548L14.8429 11.8717L14.7754 11.9392L14.7882 12.032L14.7038 11.9898L14.6195 12.032L14.6407 11.9348L14.5732 11.8629L14.6698 11.8504ZM13.9473 11.842L14.0232 11.6942L14.0907 11.8464L14.2513 11.8761L14.1288 11.9861L14.1541 12.1507L14.0104 12.0664L13.8626 12.1423L13.8963 11.9776L13.7823 11.8592L13.9473 11.842ZM13.8838 12.742L13.9429 12.6279L13.9979 12.7464L14.1248 12.7717L14.0276 12.8561L14.0445 12.987L13.9345 12.9236L13.8204 12.9826L13.8457 12.8557L13.757 12.7586L13.8838 12.742ZM13.4445 12.907L13.491 12.8226L13.5332 12.907L13.6304 12.9282L13.5585 12.9957L13.5713 13.0973L13.487 13.0467L13.3982 13.0889L13.4151 12.9917L13.3476 12.9198L13.4445 12.907ZM13.0135 12.9026L13.0641 12.8054L13.1063 12.907L13.212 12.9239L13.1316 12.9998L13.1485 13.1098L13.0557 13.0507L12.9585 13.1014L12.9798 12.9914L12.9079 12.9154L13.0135 12.9026ZM12.9838 13.4814L13.0388 13.3757L13.0895 13.4857L13.2163 13.507L13.1191 13.5873L13.136 13.7057L13.0304 13.6467L12.9163 13.6973L12.9416 13.5789L12.8573 13.4945L12.9838 13.4814ZM12.2063 12.9154L12.2485 12.8311L12.2907 12.9154L12.3835 12.9323L12.3163 12.9998L12.3248 13.097L12.2445 13.0464L12.1601 13.0886L12.177 12.9957L12.1135 12.9239L12.2063 12.9154ZM11.9907 13.7773L12.1766 13.8111L12.0329 13.942L12.0582 14.1364L11.8935 14.0392L11.7245 14.1236L11.7582 13.9336L11.6273 13.7942L11.8173 13.7729L11.906 13.5998L11.9907 13.7773ZM11.6023 9.75887L11.6657 9.64044L11.7207 9.76731L11.8476 9.78856L11.7548 9.88137L11.7716 10.0167L11.657 9.94919L11.5345 10.0082L11.5598 9.87294L11.467 9.77575L11.6023 9.75887ZM11.4457 12.9154L11.4879 12.8311L11.5301 12.9154L11.6188 12.9323L11.5513 12.9998L11.5641 13.097L11.4798 13.0464L11.3954 13.0886L11.4166 12.9957L11.3491 12.9239L11.4457 12.9154ZM10.8079 11.2842L10.867 11.1701L10.9176 11.2886L11.0445 11.3098L10.9516 11.3986L10.9685 11.5295L10.8585 11.462L10.7401 11.5211L10.7654 11.3942L10.681 11.297L10.8079 11.2842ZM10.5035 12.6745L10.3598 12.5901L10.212 12.6661L10.2457 12.5014L10.1273 12.3789L10.2963 12.362L10.3723 12.2098L10.4398 12.3661L10.6045 12.3957L10.4776 12.5098L10.5035 12.6745ZM10.1951 10.6929L10.2838 10.5198L10.3682 10.6973L10.5541 10.7311L10.4104 10.8664L10.4401 11.0564L10.271 10.9636L10.102 11.0479L10.1357 10.8536L10.0048 10.7142L10.1951 10.6929ZM9.7304 11.2842L9.78946 11.1657L9.84009 11.2882L9.96696 11.3095L9.87415 11.3982L9.89102 11.5251L9.77696 11.4617L9.6629 11.5207L9.68821 11.3939L9.60384 11.2967L9.7304 11.2842ZM8.20477 10.1645L8.29758 9.99544L8.3779 10.1729L8.56384 10.2067L8.42446 10.3376L8.44977 10.532L8.28071 10.4348L8.11165 10.5192L8.14977 10.3292L8.01446 10.1898L8.20477 10.1645ZM8.20477 12.8561L8.29758 12.687L8.3779 12.8645L8.56384 12.8982L8.42446 13.0251L8.44977 13.2239L8.28071 13.1267L8.11165 13.2111L8.14977 13.0211L8.01446 12.8773L8.20477 12.8561ZM7.35133 11.7661L7.4104 11.652L7.4654 11.7704L7.59227 11.7917L7.49509 11.8804L7.51196 12.0073L7.40196 11.9482L7.2879 12.0032L7.31321 11.8764L7.22446 11.7836L7.35133 11.7661ZM7.19071 12.2392L7.24571 12.3576L7.37259 12.3829L7.2754 12.4673L7.29227 12.5982L7.18227 12.5348L7.06821 12.5939L7.09352 12.467L7.00477 12.3698L7.13165 12.3529L7.19071 12.2392ZM6.8654 10.997L6.89915 10.9251L6.9329 11.0011L7.01321 11.0139L6.95415 11.0689L6.96696 11.1532L6.89509 11.1111L6.82321 11.1448L6.84009 11.0645L6.78508 11.0054L6.8654 10.997ZM6.45571 11.2504L6.64165 11.2842L6.50227 11.4151L6.52759 11.6095L6.35852 11.5123L6.18946 11.5967L6.22759 11.4067L6.09227 11.2673L6.28227 11.242L6.37102 11.0729L6.45571 11.2504ZM5.4279 7.56137C9.45196 7.29856 12.6382 8.58637 15.4995 11.0964C15.5729 10.7423 15.612 10.3757 15.612 9.99981C15.6141 7.02856 13.2085 4.617 10.2373 4.61231C8.13758 4.60919 6.31821 5.80919 5.4279 7.56137ZM11.8598 8.24637L11.9401 8.09419L12.012 8.25481L12.181 8.2845L12.0541 8.39856L12.0795 8.57169L11.9273 8.48731L11.7751 8.56325L11.8088 8.39419L11.6904 8.26731L11.8598 8.24637Z" fill="#325DB2"/>
<path d="M19.972 9.2875L9.98547 2.82406L0.0273438 9.29937C0.387344 4.10375 4.71297 0 10.0002 0C15.2833 0 19.6064 4.0975 19.972 9.2875ZM0.0307812 10.7444C0.412031 15.9194 4.72797 20 10.0002 20C15.2745 20 19.592 15.9156 19.9702 10.7378L10.0514 17.1759L0.0307812 10.7444ZM12.8861 10.0422L13.2664 10.2747L13.317 10.1903L13.0339 10.0212L13.1183 9.88187L13.3717 10.0381L13.4267 9.95375L13.1733 9.7975L13.2408 9.68344L13.5111 9.8525L13.5617 9.76812L13.1898 9.53562L12.8814 10.0428L12.8861 10.0422ZM13.5877 10.2578C13.5745 10.2869 13.5717 10.3197 13.5792 10.3506C13.5902 10.3797 13.6111 10.4038 13.6383 10.4181C13.672 10.4394 13.6973 10.4478 13.7227 10.4434C13.748 10.4434 13.7648 10.4306 13.7777 10.4097C13.7839 10.3997 13.787 10.3878 13.7861 10.3759C13.7861 10.3631 13.7777 10.3462 13.7648 10.3337C13.7433 10.3075 13.7208 10.2822 13.6973 10.2578C13.6508 10.2113 13.6214 10.1734 13.613 10.1394C13.5989 10.0953 13.6052 10.0475 13.6298 10.0084C13.6458 9.9825 13.6695 9.96187 13.6973 9.94938C13.7264 9.93594 13.7586 9.93156 13.7902 9.93656C13.8292 9.94313 13.8667 9.9575 13.9002 9.97875C13.9636 10.0209 14.0017 10.0631 14.0142 10.1097C14.0298 10.1578 14.0236 10.2103 13.9973 10.2534L13.8917 10.1944C13.9045 10.1647 13.9086 10.1437 13.9002 10.1225C13.8917 10.1012 13.8748 10.0803 13.8452 10.0634C13.8217 10.0466 13.7936 10.0378 13.7648 10.0381C13.7508 10.0391 13.738 10.0469 13.7311 10.0594C13.7227 10.0722 13.7227 10.0847 13.7267 10.1016C13.7311 10.1184 13.7564 10.1522 13.7986 10.1944C13.8408 10.2366 13.8705 10.2703 13.883 10.2959C13.9177 10.35 13.9177 10.4194 13.883 10.4734C13.8648 10.5028 13.8383 10.5266 13.807 10.5409C13.7755 10.5556 13.7398 10.56 13.7055 10.5537C13.662 10.5462 13.6205 10.5306 13.583 10.5072C13.5283 10.4781 13.4864 10.43 13.4645 10.3719C13.4483 10.3153 13.4542 10.255 13.4814 10.2028L13.5877 10.2578ZM8.04797 8.35219L7.60016 8.31L7.65516 7.71844L8.09047 7.76062L8.08203 7.86219L7.76516 7.8325L7.75234 7.95937L8.04797 7.98906L8.03516 8.09062L7.73953 8.06094L7.72672 8.22156L8.05641 8.25125L8.04797 8.35219ZM14.0692 10.5787C14.0548 10.6075 14.0502 10.6403 14.0564 10.6716C14.0664 10.7022 14.0873 10.7278 14.1155 10.7434C14.1452 10.7647 14.1745 10.7772 14.1998 10.7731C14.2252 10.7731 14.242 10.7603 14.2548 10.7434C14.2623 10.7322 14.2652 10.7187 14.2633 10.7053C14.2598 10.6897 14.2527 10.6753 14.242 10.6631C14.2336 10.6503 14.2123 10.6209 14.1786 10.5872C14.1439 10.5513 14.118 10.5078 14.1027 10.4603C14.0808 10.3859 14.1167 10.3069 14.187 10.2744C14.2177 10.2616 14.2517 10.2588 14.2842 10.2659C14.3239 10.275 14.3614 10.2925 14.3942 10.3166C14.4533 10.3588 14.4914 10.4009 14.5042 10.4519C14.5161 10.5 14.5067 10.5506 14.4789 10.5912L14.3773 10.5278C14.3902 10.5025 14.3942 10.4772 14.3858 10.4559C14.3814 10.4347 14.3645 10.4137 14.3352 10.3969C14.3136 10.3794 14.287 10.3691 14.2592 10.3672C14.2436 10.3666 14.2289 10.3747 14.2211 10.3884C14.2127 10.4012 14.2127 10.4137 14.217 10.4306C14.2211 10.4475 14.2423 10.4812 14.2845 10.5234C14.3267 10.5656 14.352 10.6038 14.3689 10.6291C14.3998 10.6856 14.3948 10.755 14.3561 10.8066C14.3364 10.8353 14.3083 10.8575 14.2758 10.87C14.2442 10.8847 14.2086 10.8891 14.1742 10.8828C14.1361 10.8744 14.0983 10.8575 14.0558 10.8278C13.9923 10.7856 13.9542 10.7391 13.9417 10.6884C13.928 10.6309 13.937 10.5703 13.967 10.5194L13.9714 10.5237L14.0692 10.5787ZM8.30578 8.39844L8.19578 8.38156L8.28016 7.79L8.45766 7.81969L8.50422 8.23375L8.66891 7.85344L8.84641 7.87875L8.76203 8.46187L8.64797 8.445L8.71984 7.98437L8.53391 8.42812L8.41984 8.41125L8.37328 7.93375L8.30578 8.39844ZM11.7833 9.42125C11.7542 9.3775 11.7395 9.32594 11.7411 9.27344C11.7433 9.21875 11.7577 9.16531 11.7833 9.11719C11.8086 9.06625 11.8464 9.02281 11.8933 8.99031C11.938 8.95937 11.9911 8.94312 12.0455 8.94375C12.0877 8.94375 12.1298 8.95656 12.1808 8.98594C12.2483 9.01562 12.2908 9.05781 12.3117 9.10437C12.3336 9.15063 12.3383 9.20312 12.3245 9.25219L12.2105 9.21844C12.2173 9.19 12.2145 9.16031 12.202 9.13406C12.1892 9.10875 12.1683 9.09188 12.1345 9.075C12.0945 9.05219 12.047 9.0475 12.0036 9.06219C11.9614 9.075 11.9233 9.11281 11.8936 9.17219C11.8639 9.23125 11.8514 9.28625 11.8639 9.33281C11.8758 9.3775 11.9067 9.41469 11.9483 9.43437C11.9695 9.44719 11.9948 9.45562 12.0202 9.45562C12.0455 9.45938 12.0711 9.45938 12.0961 9.45562L12.1298 9.38812L12.0073 9.32469L12.0539 9.24031L12.282 9.35437L12.1764 9.56563C12.1427 9.57406 12.1005 9.57844 12.0495 9.57406C12.0008 9.56875 11.9536 9.55438 11.9102 9.53188C11.8589 9.50594 11.8152 9.46812 11.7833 9.42125ZM5.91828 7.63812C5.87609 7.63812 5.83391 7.64656 5.79141 7.65937C5.76297 7.67094 5.73703 7.68813 5.71547 7.71C5.69109 7.73313 5.67109 7.76031 5.65641 7.79031C5.63953 7.8325 5.62672 7.87906 5.62672 7.9425C5.62016 8.02375 5.64609 8.10406 5.69859 8.16656C5.75172 8.22125 5.82516 8.25187 5.90141 8.25094C5.97891 8.25812 6.05547 8.23187 6.11266 8.17906C6.16766 8.12406 6.19703 8.04812 6.19703 7.955C6.20672 7.87156 6.18234 7.78781 6.12953 7.7225C6.07484 7.67188 6.00703 7.63812 5.91828 7.63812ZM6.02828 8.10281C5.99797 8.13531 5.95453 8.1525 5.90984 8.14937C5.85922 8.14937 5.82109 8.12813 5.79141 8.09437C5.76172 8.05625 5.74922 8.00562 5.74922 7.94219C5.75359 7.87469 5.76609 7.82375 5.79984 7.79C5.82984 7.75656 5.87328 7.73781 5.91828 7.73938C5.96266 7.73969 6.00453 7.75969 6.03234 7.79437C6.06609 7.82812 6.07453 7.87875 6.07453 7.94656C6.07047 8.01844 6.05797 8.06906 6.02828 8.10281ZM6.44672 8.00125H6.47203C6.49203 8.00125 6.51203 8.00406 6.53109 8.00969C6.54578 8.01469 6.55891 8.02344 6.56922 8.035L6.62828 8.11937L6.71266 8.25469H6.85641L6.78453 8.13625C6.75922 8.08969 6.73797 8.05594 6.72109 8.03906L6.65766 7.98844C6.70047 7.985 6.74047 7.96687 6.77172 7.93781C6.79922 7.90781 6.81422 7.86875 6.81391 7.82781C6.81391 7.78969 6.80547 7.75594 6.78859 7.73063C6.77172 7.70531 6.75047 7.68406 6.72109 7.67563C6.69141 7.66281 6.64922 7.65437 6.58578 7.65437H6.33234L6.32391 8.24594H6.44641L6.44672 8.00125ZM6.45078 7.90406V7.75625L6.54797 7.76031H6.63234C6.64922 7.76469 6.66609 7.77312 6.67453 7.78562C6.68734 7.79406 6.69141 7.81094 6.69141 7.83625C6.69141 7.84906 6.68703 7.87 6.67859 7.87844C6.67016 7.88688 6.65734 7.89969 6.64484 7.89969C6.63203 7.90812 6.59422 7.90812 6.53484 7.90812H6.45047L6.45078 7.90406ZM7.30016 8.28031C7.33109 8.27281 7.36016 8.25844 7.38453 8.23812C7.41422 8.21281 7.43953 8.17906 7.45641 8.13656C7.47047 8.09562 7.47766 8.05281 7.47766 8.00969C7.48203 7.95469 7.47766 7.90812 7.46484 7.87031C7.45578 7.83312 7.43859 7.79844 7.41422 7.76875C7.39172 7.74188 7.36266 7.72156 7.32984 7.70969C7.30453 7.70125 7.26641 7.69687 7.21984 7.69687L7.00016 7.68438L6.97047 8.27594L7.19453 8.28875C7.23672 8.28875 7.27484 8.28875 7.30016 8.28031ZM7.11422 7.79H7.16922C7.20203 7.79125 7.23453 7.79562 7.26641 7.80281C7.28547 7.80812 7.30297 7.81844 7.31703 7.8325C7.33328 7.84906 7.34484 7.86938 7.35078 7.89156C7.35516 7.91687 7.35516 7.95062 7.35516 7.99719C7.35516 8.04375 7.34672 8.08156 7.33828 8.10719C7.32984 8.1325 7.31703 8.14937 7.30453 8.16219C7.29172 8.175 7.27484 8.18344 7.25391 8.18344H7.09328L7.11422 7.79ZM10.0677 8.55062L10.1395 8.57187C10.1945 8.58469 10.2367 8.59312 10.2664 8.59312C10.3155 8.59312 10.3617 8.57156 10.3933 8.53406C10.4145 8.51281 10.427 8.48344 10.4355 8.44969C10.4439 8.40312 10.4439 8.36531 10.427 8.33125C10.4142 8.29312 10.3889 8.26781 10.3595 8.25094L10.2242 8.20875L10.0383 8.16656L9.89891 8.74125L10.0173 8.77094L10.0677 8.55062ZM10.127 8.29281H10.1314L10.1864 8.30562L10.2667 8.32687C10.2848 8.33438 10.2998 8.34781 10.3089 8.365C10.3173 8.38188 10.3173 8.39875 10.3173 8.42C10.3105 8.45344 10.2833 8.47875 10.2498 8.48344C10.233 8.48781 10.1992 8.47906 10.157 8.47062L10.0936 8.45375L10.127 8.29281ZM10.6423 8.71125L10.6636 8.71969C10.6933 8.72812 10.7102 8.73656 10.7186 8.74937C10.7295 8.75844 10.7383 8.77 10.7439 8.78312C10.7558 8.81625 10.7658 8.85 10.7736 8.88469L10.8158 9.03687L10.9467 9.08344L10.9214 8.9525L10.8877 8.83844C10.8792 8.81312 10.8623 8.79187 10.8455 8.77094C10.8961 8.77937 10.9383 8.775 10.9723 8.75812C11.0061 8.73687 11.0314 8.7075 11.0483 8.66531C11.0567 8.63156 11.0527 8.60187 11.0483 8.56812C11.0442 8.53437 11.027 8.51312 11.0061 8.49219C10.9808 8.47531 10.9427 8.45406 10.8792 8.43312L10.6467 8.34875L10.4483 8.90656L10.5583 8.94875L10.6423 8.71125ZM10.7227 8.48312L10.807 8.51281L10.8914 8.5425C10.907 8.55062 10.9189 8.56406 10.9252 8.58062C10.9336 8.5975 10.9336 8.61438 10.9252 8.63125C10.9208 8.64812 10.9123 8.66094 10.8998 8.66937C10.887 8.68219 10.8745 8.68219 10.8617 8.68219C10.8448 8.68219 10.8111 8.67375 10.7561 8.6525L10.6758 8.62281H10.672L10.7227 8.48312ZM11.327 9.26062C11.4073 9.28594 11.4833 9.28187 11.5467 9.24375C11.618 9.20187 11.6695 9.13344 11.6905 9.05375C11.7158 8.96094 11.7158 8.88062 11.682 8.81281C11.6455 8.74312 11.5811 8.69219 11.5045 8.67344C11.458 8.65625 11.4158 8.65625 11.3733 8.65625C11.348 8.66063 11.3183 8.66906 11.2889 8.68594C11.2598 8.7025 11.2342 8.72375 11.213 8.74937C11.1802 8.78906 11.1558 8.835 11.1411 8.88469C11.1123 8.96156 11.1155 9.04656 11.1495 9.12125C11.1864 9.19062 11.2508 9.24125 11.327 9.26062ZM11.2592 8.91844C11.2805 8.85094 11.3098 8.80844 11.352 8.78312C11.3905 8.76062 11.4367 8.75594 11.4789 8.77031C11.5208 8.78312 11.5548 8.81437 11.5717 8.85469C11.593 8.89687 11.593 8.9475 11.5717 9.01094C11.5505 9.07844 11.5252 9.125 11.483 9.14625C11.4408 9.17156 11.3986 9.17594 11.3561 9.16313C11.3095 9.14625 11.2802 9.12094 11.2589 9.07875C11.2383 9.03656 11.2423 8.98156 11.2592 8.91844ZM12.4002 9.76344L12.5142 9.54375L12.5355 9.55656L12.5861 9.58625C12.597 9.59812 12.6042 9.61281 12.6073 9.62844C12.6139 9.66344 12.618 9.69875 12.6202 9.73406L12.637 9.89031L12.7639 9.95375L12.7555 9.81844C12.7511 9.76344 12.747 9.72563 12.7386 9.7C12.7302 9.67875 12.7217 9.65344 12.7048 9.62813C12.7514 9.645 12.7936 9.645 12.8358 9.63656C12.8739 9.62031 12.9039 9.59 12.9202 9.55219C12.937 9.5225 12.937 9.49312 12.937 9.45937C12.937 9.42562 12.9242 9.40031 12.9033 9.37906C12.8698 9.34625 12.8314 9.31906 12.7892 9.29875L12.5652 9.18469L12.2948 9.70875L12.4002 9.76344ZM12.6242 9.32406L12.7086 9.36625C12.7345 9.37937 12.7598 9.39344 12.7845 9.40844C12.8014 9.42125 12.8098 9.43812 12.8142 9.45062C12.8186 9.4675 12.8142 9.48438 12.8058 9.50125C12.7973 9.51812 12.7889 9.53094 12.7761 9.535C12.7633 9.54344 12.7464 9.54344 12.7339 9.54344C12.7211 9.54344 12.6873 9.52656 12.6367 9.50125L12.5564 9.45906L12.6242 9.32406ZM14.4242 11.0184C14.4386 11.0953 14.4845 11.1628 14.5511 11.2044C14.6142 11.2506 14.6942 11.2675 14.7708 11.2509C14.8502 11.2316 14.9186 11.1812 14.9608 11.1116C15.0114 11.0312 15.0327 10.9509 15.0198 10.8791C15.0055 10.8022 14.9595 10.7347 14.893 10.6931C14.8548 10.6678 14.817 10.6509 14.7745 10.6425C14.7439 10.6362 14.7123 10.6362 14.6817 10.6425C14.6486 10.6494 14.6173 10.6622 14.5889 10.6806C14.5467 10.7097 14.5105 10.7472 14.4833 10.7906C14.4327 10.8662 14.4114 10.9422 14.4242 11.0184ZM14.5848 10.8578C14.627 10.7987 14.6692 10.765 14.7117 10.7562C14.7539 10.7434 14.8005 10.7478 14.8386 10.7775C14.8767 10.8072 14.902 10.845 14.9061 10.8875C14.9145 10.9297 14.8977 10.9803 14.8595 11.0397C14.8214 11.0988 14.7792 11.1284 14.737 11.1412C14.6948 11.1541 14.6527 11.1453 14.6102 11.1159C14.5736 11.0922 14.5489 11.0534 14.5427 11.0103C14.5342 10.9637 14.547 10.9131 14.5892 10.8581L14.5848 10.8578ZM9.23109 8.5L9.32828 8.08594L9.63266 8.15781L9.61984 8.22531L9.39578 8.17469L9.37453 8.2675L9.58172 8.31406L9.56484 8.38594L9.35766 8.33531L9.33234 8.44937L9.56484 8.50437L9.54797 8.57187L9.23109 8.5Z" fill="#249338"/>
</svg>
