<svg width="64" height="64" viewBox="0 0 64 64" fill="none" xmlns="http://www.w3.org/2000/svg">
<g clip-path="url(#clip0_324_341)">
<path d="M32 64C49.6731 64 64 49.6731 64 32C64 14.3269 49.6731 0 32 0C14.3269 0 0 14.3269 0 32C0 49.6731 14.3269 64 32 64Z" fill="white"/>
<path d="M32 0C37.907 0 43.435 1.607 48.185 4.398H27.55V0.315C29.005 0.112 30.489 0 32 0ZM27.55 34.511H63.893C63.957 33.682 64 32.846 64 32C64 31.154 63.957 30.318 63.893 29.489H27.55V34.511ZM27.55 14.437H58.746C57.557 12.63 56.194 10.947 54.673 9.42H27.55V14.437ZM27.55 24.482H63.103C62.685 22.746 62.131 21.062 61.442 19.449H27.55V24.482ZM32 64C37.907 64 43.436 62.393 48.185 59.602H15.815C20.564 62.393 26.093 64 32 64ZM2.55799 44.551H61.443C62.13 42.943 62.682 41.265 63.1 39.534H0.899994C1.31799 41.264 1.87099 42.942 2.55799 44.551ZM9.32699 54.58H54.673C56.194 53.053 57.557 51.37 58.746 49.563H5.25399C6.44299 51.37 7.80599 53.053 9.32699 54.58Z" fill="#C64252"/>
<path d="M7.657 11.241C5.727 13.502 4.109 16.034 2.863 18.773L3.206 19.842H4.672L3.487 20.696L3.933 22.085L2.761 21.218L1.576 22.085L1.607 21.989C0.731 24.65 0.187 27.463 0.042 30.381L0.033 30.743C0.016 31.161 0 31.579 0 32C0 32.846 0.043 33.682 0.107 34.511H27.55V29.489V24.482V19.449V14.437V9.42V4.398V0.315001C26.171 0.507001 24.822 0.787001 23.505 1.149L23.865 2.269H25.331L24.146 3.123L24.605 4.525L23.42 3.658L22.235 4.512L22.694 3.123L21.509 2.269H22.975L23.317 1.203C20.813 1.908 18.435 2.908 16.221 4.166L16.01 4.287C14.566 5.122 13.192 6.064 11.901 7.107L11.445 7.481C10.17 8.551 8.982 9.721 7.888 10.976M3.933 29.12L2.761 28.253L1.576 29.107L2.022 27.718L0.85 26.864H2.303L2.762 25.475L3.208 26.864H4.674L3.489 27.718L3.933 29.12ZM8.075 32.624L6.89 31.771L5.705 32.625L6.164 31.223L4.979 30.369H6.432L6.891 28.993L7.337 30.382H8.803L7.618 31.236L8.075 32.624ZM7.616 24.214L8.075 25.59L6.89 24.736L5.704 25.59L6.163 24.201L4.978 23.347H6.431L6.89 21.958L7.336 23.36H8.802L7.616 24.214ZM7.616 17.179L8.075 18.581L6.89 17.714L5.705 18.568L6.164 17.179L4.979 16.325H6.432L6.891 14.936L7.337 16.325H8.803L7.616 17.179ZM12.204 29.12L11.019 28.253L9.847 29.107L10.293 27.718L9.108 26.864H10.586L11.019 25.475L11.478 26.864H12.931L11.759 27.718L12.204 29.12ZM11.758 20.696L12.204 22.085L11.019 21.218L9.847 22.085L10.293 20.683L9.107 19.83H10.585L11.018 18.454L11.477 19.843H12.93L11.758 20.696ZM11.758 13.662L12.204 15.064L11.019 14.197L9.847 15.051L10.293 13.662L9.108 12.808H10.586L11.019 11.419L11.478 12.808H12.931L11.758 13.662ZM16.333 32.624L15.148 31.77L13.976 32.624L14.422 31.222L13.25 30.368H14.703L15.149 28.992L15.608 30.381H17.061L15.889 31.235L16.333 32.624ZM15.887 24.214L16.333 25.59L15.148 24.736L13.976 25.59L14.422 24.201L13.25 23.347H14.703L15.149 21.958L15.608 23.36H17.061L15.887 24.214ZM15.887 17.179L16.333 18.581L15.148 17.714L13.976 18.568L14.422 17.179L13.25 16.325H14.703L15.149 14.936L15.608 16.325H17.061L15.887 17.179ZM15.887 10.157L16.333 11.546L15.148 10.679L13.976 11.546L14.422 10.144L13.25 9.29H14.703L15.149 7.901L15.608 9.303H17.061L15.887 10.157ZM20.462 29.12L19.29 28.253L18.105 29.107L18.551 27.718L17.379 26.864H18.832L19.291 25.475L19.737 26.864H21.203L20.018 27.718L20.462 29.12ZM20.016 20.696L20.462 22.085L19.29 21.218L18.105 22.085L18.551 20.683L17.379 19.829H18.832L19.291 18.453L19.737 19.842H21.203L20.016 20.696ZM20.016 13.662L20.462 15.064L19.29 14.197L18.105 15.051L18.551 13.662L17.379 12.808H18.832L19.291 11.419L19.737 12.808H21.203L20.016 13.662ZM20.016 6.64L20.462 8.029L19.29 7.175L18.105 8.029L18.55 6.64L17.378 5.786H18.831L19.29 4.397L19.736 5.786H21.202L20.016 6.64ZM24.603 32.624L23.418 31.77L22.233 32.624L22.692 31.222L21.507 30.368H22.973L23.419 28.992L23.865 30.381H25.331L24.146 31.235L24.603 32.624ZM24.145 24.214L24.604 25.59L23.419 24.736L22.234 25.59L22.693 24.201L21.508 23.347H22.974L23.42 21.958L23.866 23.36H25.332L24.145 24.214ZM24.145 17.179L24.604 18.581L23.419 17.714L22.234 18.568L22.693 17.179L21.508 16.325H22.974L23.42 14.936L23.866 16.325H25.332L24.145 17.179ZM24.145 10.157L24.604 11.546L23.419 10.679L22.234 11.546L22.693 10.144L21.508 9.29H22.974L23.42 7.901L23.866 9.303H25.332L24.145 10.157Z" fill="#2B497A"/>
</g>
<defs>
<clipPath id="clip0_324_341">
<rect width="64" height="64" fill="white"/>
</clipPath>
</defs>
</svg>
